<svg xmlns="http://www.w3.org/2000/svg" viewBox="116 75 95 101" style="margin: 0;"
x="100"
y="100px"
  >

  <g data-v-0dd9719b="" fill="#d92778" class="bordersvg b-d1" transform="translate(123.36999893188477,81.75)">
    <polyline stroke="#d92778" stroke-width="4" fill-opacity="0" fill="#ffffff" points="85.97750186920166,20 85.97750186920166,-5 -5,-5 -5,91.5 85.97750186920166,91.5 85.97750186920166,71.5"/>
    <g transform="translate(0,20)">
      <g>
        <rect data-gra="graph-name-bg" stroke-width="2" class="i-icon-bg" x="0" y="0" width="98.26000213623047" height="51.5" fill-opacity="0"/>
      </g>
      <g transform="translate(10,3)">
        <g data-gra="path-name" fill-rule="" class="tp-name">
          <g transform="scale(1)">
            <g>
              <path d="M17.09 0L20.61 0 20.61-42.32 37.05-42.32 37.05-45.44 0.65-45.44 0.65-42.32 17.09-42.32ZM47.26-21.58C52.72-21.58 57.4-21.58 62.86-21.58 68.97-21.58 75.4-19.05 75.47-11.96 75.47-4.75 68.12-3.38 62.4-3.38L47.26-3.38ZM47.26-42.51L62.4-42.51C68.06-42.51 74.03-39.72 74.03-33.09 74.03-26.59 68.31-24.89 62.86-24.89L47.26-24.89ZM62.4-45.5C55.77-45.5 50.31-45.5 43.75-45.5L43.75 0C50.38 0 55.77 0 62.4 0 70.2 0 78.91-2.54 78.91-11.89 78.91-17.16 75.66-21.78 69.94-23.34 74.49-24.77 77.35-28.41 77.35-33.09 77.35-41.73 70.07-45.5 62.4-45.5Z" transform="translate(-0.6500000357627869, 45.5)"/>
            </g>
          </g>
        </g>
      </g>
    </g>
  </g>
  <defs v-gra="od"/>
</svg>